<svg width="32" height="33" viewBox="0 0 32 33" fill="none" xmlns="http://www.w3.org/2000/svg">
<path d="M16 20.4997L25.3333 29.833L28 27.1663L18.6667 17.833M16 20.4997L12 16.4997L14.6667 13.833L18.6667 17.833M16 20.4997L18.6667 17.833" stroke="#039855" stroke-width="2" stroke-linecap="round" stroke-linejoin="round"/>
<path d="M8 5.83301L8.44207 7.02767C8.84721 8.12255 9.71045 8.98579 10.8053 9.39094L12 9.83301L10.8053 10.2751C9.71045 10.6802 8.84721 11.5435 8.44207 12.6383L8 13.833L7.55793 12.6383C7.15279 11.5435 6.28955 10.6802 5.19467 10.2751L4 9.83301L5.19467 9.39094C6.28955 8.98579 7.15279 8.12255 7.55793 7.02767L8 5.83301Z" stroke="#039855" stroke-width="2" stroke-linejoin="round"/>
<path d="M22.6615 3.16602L23.2509 4.75891C23.7911 6.21875 24.9421 7.36974 26.4019 7.90992L27.9948 8.49935L26.4019 9.08878C24.9421 9.62896 23.7911 10.7799 23.2509 12.2398L22.6615 13.8327L22.072 12.2398C21.5319 10.7799 20.3808 9.62896 18.9211 9.08878L17.3281 8.49935L18.9211 7.90992C20.3808 7.36974 21.5319 6.21875 22.072 4.75891L22.6615 3.16602Z" stroke="#039855" stroke-width="2" stroke-linejoin="round"/>
</svg>
